<svg xmlns="http://www.w3.org/2000/svg" xmlns:xlink="http://www.w3.org/1999/xlink" width="500" zoomAndPan="magnify" viewBox="0 0 375 374.999991" height="500" preserveAspectRatio="xMidYMid meet" version="1.0"><path fill="#ffffff" d="M 186.085938 39.679688 C 173.625 52.0625 161.15625 64.4375 148.675781 76.808594 C 142.847656 82.59375 140.152344 85.386719 140.15625 85.640625 C 140.15625 85.894531 156.753906 102.601562 194.136719 139.976562 C 223.828125 169.660156 248.917969 194.859375 249.890625 195.976562 C 252.910156 199.449219 256.929688 204.980469 258.425781 207.726562 C 258.796875 208.40625 259.316406 209.28125 259.578125 209.667969 C 260.949219 211.691406 264.246094 219.597656 266.128906 225.367188 C 266.832031 227.527344 268.144531 234.210938 268.699219 238.464844 C 269.167969 242.03125 269.167969 252.726562 268.703125 256.304688 C 268.191406 260.230469 266.414062 268.917969 265.933594 269.820312 C 265.855469 269.964844 265.421875 271.160156 264.964844 272.46875 C 262.726562 278.910156 260.84375 282.695312 256.226562 290.046875 C 254.484375 292.816406 249.570312 298.703125 246.472656 301.726562 C 241.816406 306.269531 235.105469 311.453125 230.914062 313.742188 C 222.769531 318.191406 215.964844 320.859375 208.941406 322.359375 C 207.59375 322.648438 206.246094 322.945312 204.898438 323.246094 C 203.832031 323.484375 201.960938 323.777344 200.746094 323.894531 C 197.84375 324.175781 187.359375 324.175781 184.328125 323.898438 C 179.089844 323.421875 171.214844 321.394531 164.886719 318.898438 C 162.328125 317.890625 161.433594 317.460938 157.464844 315.3125 C 153.265625 313.039062 152.097656 312.285156 147.78125 309.082031 C 144.457031 306.613281 143.414062 305.714844 140.308594 302.636719 C 138.324219 300.667969 136.019531 298.222656 135.1875 297.203125 C 130.292969 291.195312 129.410156 289.953125 126.460938 284.925781 C 116.203125 267.429688 113.117188 247.648438 117.75 229.101562 C 120.355469 218.671875 125.285156 208.371094 131.96875 199.386719 C 133.785156 196.945312 132.027344 198.738281 179.8125 150.609375 C 184.089844 146.304688 187.609375 142.636719 187.640625 142.457031 C 187.675781 142.25 187.160156 141.542969 186.238281 140.523438 C 185.015625 139.171875 184.699219 138.917969 184.246094 138.917969 C 183.769531 138.917969 180.761719 141.871094 156.921875 165.726562 C 128.867188 193.800781 128.824219 193.847656 125.023438 199.1875 C 119.007812 207.632812 114.398438 217.402344 111.980469 226.804688 C 111.070312 230.359375 109.992188 235.890625 109.644531 238.816406 C 109.199219 242.5625 109.207031 252.535156 109.65625 256.21875 C 110.941406 266.699219 113.570312 275.421875 118.164062 284.472656 C 127.15625 302.183594 142.660156 316.542969 160.675781 323.851562 C 177.96875 330.863281 196.167969 331.878906 214.488281 326.855469 C 218.851562 325.660156 224.667969 323.476562 228.613281 321.550781 C 240.757812 315.628906 251.089844 307.222656 258.980469 296.839844 C 267.4375 285.714844 273.136719 271.59375 274.933594 257.328125 C 276.9375 241.402344 274.238281 225.257812 267.171875 210.90625 C 263.644531 203.746094 259.953125 198.160156 254.921875 192.355469 C 253.117188 190.277344 249.183594 186.269531 232.203125 169.214844 C 165.292969 102.007812 149.246094 85.855469 149.203125 85.675781 C 149.175781 85.5625 152.871094 81.734375 157.417969 77.167969 L 179.171875 55.3125 C 186.59375 47.855469 192.714844 41.757812 192.777344 41.757812 C 192.835938 41.757812 203.339844 52.21875 216.117188 65.003906 C 228.894531 77.789062 239.644531 88.476562 240.011719 88.746094 C 240.429688 89.058594 240.808594 89.207031 241.03125 89.148438 C 241.367188 89.0625 245.089844 85.300781 245.089844 85.050781 C 245.089844 84.984375 243 82.871094 240.449219 80.355469 C 234.765625 74.742188 218.679688 58.78125 203.996094 44.183594 C 197.964844 38.183594 192.917969 33.277344 192.78125 33.277344 C 192.644531 33.28125 189.632812 36.160156 186.085938 39.679688 M 247.632812 90.734375 C 246.164062 92.257812 245.265625 93.308594 245.265625 93.507812 C 245.265625 93.933594 244.714844 93.371094 274.148438 123.023438 C 280.851562 129.777344 289.636719 138.640625 293.667969 142.71875 C 297.695312 146.796875 307.976562 157.15625 316.507812 165.738281 C 325.136719 174.414062 332 181.457031 331.96875 181.59375 C 331.9375 181.734375 320.191406 193.621094 305.859375 208.011719 C 291.527344 222.402344 279.738281 234.351562 279.664062 234.566406 C 279.527344 234.960938 280.28125 241.476562 280.492188 241.6875 C 280.554688 241.75 289.847656 232.582031 301.136719 221.3125 C 312.429688 210.046875 325.984375 196.539062 331.257812 191.292969 C 336.53125 186.050781 340.824219 181.667969 340.796875 181.554688 C 340.714844 181.222656 249.1875 89.628906 248.933594 89.628906 C 248.804688 89.628906 248.21875 90.128906 247.632812 90.734375 M 127.167969 98.332031 C 80.0625 145.707031 44.835938 181.203125 44.617188 181.515625 C 44.398438 181.828125 44.828125 182.300781 50.011719 187.457031 C 53.105469 190.542969 66.59375 203.992188 79.976562 217.347656 C 95.992188 233.324219 104.359375 241.554688 104.449219 241.414062 C 104.519531 241.296875 104.679688 239.789062 104.800781 238.066406 C 104.925781 236.339844 105.058594 234.804688 105.101562 234.652344 C 105.179688 234.371094 102.496094 231.636719 69.179688 198.023438 C 61.863281 190.644531 55.945312 184.542969 56.023438 184.464844 C 56.101562 184.386719 69.964844 184.300781 86.828125 184.277344 C 113.695312 184.234375 117.527344 184.199219 117.804688 183.964844 C 118.09375 183.726562 118.113281 183.476562 118.015625 181.328125 C 117.933594 179.550781 117.839844 178.886719 117.640625 178.6875 C 117.402344 178.449219 113.839844 178.410156 86.71875 178.34375 C 69.859375 178.300781 56.066406 178.214844 56.066406 178.148438 C 56.066406 178.082031 59.183594 174.890625 62.988281 171.058594 C 74.207031 159.773438 86.554688 147.308594 94.484375 139.269531 C 98.558594 135.140625 110.28125 123.3125 120.535156 112.984375 C 130.789062 102.652344 139.242188 94.09375 139.3125 93.964844 C 139.40625 93.800781 138.875 93.125 137.664062 91.855469 C 136.679688 90.824219 135.785156 89.984375 135.671875 89.984375 C 135.558594 89.984375 131.734375 93.738281 127.167969 98.332031 M 249.226562 211.570312 C 250.992188 214.949219 253.222656 220.519531 254.300781 224.242188 C 254.964844 226.53125 255.933594 231.445312 256.5 235.371094 C 256.917969 238.285156 256.855469 247.289062 256.390625 251.296875 C 255.425781 259.605469 252.597656 268.335938 248.382812 276.003906 C 241.503906 288.519531 230.925781 298.425781 217.863281 304.59375 C 211.433594 307.628906 203.964844 309.753906 196.949219 310.542969 C 193.835938 310.894531 185.726562 310.890625 182.550781 310.535156 C 171.234375 309.28125 160.769531 305.316406 151.371094 298.726562 C 148.886719 296.984375 148.117188 296.320312 144.171875 292.523438 C 142.253906 290.675781 140.601562 289.136719 140.496094 289.101562 C 140.320312 289.042969 142.277344 291.796875 144.945312 295.367188 C 146.582031 297.554688 148.863281 299.675781 152.53125 302.429688 C 156.710938 305.570312 157.402344 306.015625 160.796875 307.753906 C 162.414062 308.582031 164.335938 309.605469 165.0625 310.023438 C 167.3125 311.316406 172.851562 313.304688 177.074219 314.339844 C 178.289062 314.636719 180.792969 315.121094 182.640625 315.414062 C 184.484375 315.710938 186.554688 316.042969 187.234375 316.152344 C 187.921875 316.265625 190.585938 316.355469 193.238281 316.359375 C 197.246094 316.367188 198.433594 316.308594 200.660156 315.984375 C 202.117188 315.769531 204.0625 315.507812 204.988281 315.394531 C 208.378906 314.988281 214.621094 313.300781 218.691406 311.6875 C 221.164062 310.710938 227.199219 307.699219 229.316406 306.390625 C 230.679688 305.546875 233.746094 303.34375 236.5 301.230469 C 240.75 297.964844 248.171875 289.578125 250.621094 285.277344 C 250.953125 284.695312 251.910156 283.027344 252.75 281.570312 C 254.410156 278.683594 256.160156 274.859375 257.148438 271.941406 C 260.183594 262.984375 261.210938 257.136719 261.21875 248.710938 C 261.222656 242.800781 260.679688 238.039062 259.390625 232.722656 C 258.675781 229.78125 258.382812 228.855469 256.808594 224.597656 C 254.875 219.367188 253.117188 215.84375 251.070312 213.105469 C 250.160156 211.890625 249.136719 210.476562 248.796875 209.972656 C 247.703125 208.339844 247.875 208.984375 249.226562 211.570312 " fill-opacity="1" fill-rule="evenodd"/></svg>